<svg xmlns="http://www.w3.org/2000/svg" viewBox="0 0 149.98 32.1"><defs><style>.cls-1{fill:#262525;}.cls-2,.cls-6{font-size:10.79px;font-family:AzonixRegular, Azonix;}.cls-2,.cls-6,.cls-7,.cls-8{fill:#fff;}.cls-2{letter-spacing:-0.05em;}.cls-3{letter-spacing:-0.12em;}.cls-4{letter-spacing:-0.05em;}.cls-5{letter-spacing:-0.27em;}.cls-6{letter-spacing:0.45em;}.cls-7{font-size:6.79px;font-family:CenturyGothic, Century Gothic;letter-spacing:0.31em;}.cls-9{fill:#fbad18;}.cls-10{fill:#4d4d4d;}</style></defs><g id="Layer_2" data-name="Layer 2"><g id="Layer_1-2" data-name="Layer 1"><rect class="cls-1" x="44.56" y="11.02" width="99.75" height="10.57"/><text class="cls-2" transform="translate(44.56 9.17)">HAND <tspan class="cls-3" x="36.38" y="0">T</tspan><tspan class="cls-4" x="43.76" y="0">O HAND</tspan><tspan class="cls-5" x="87.7" y="0">L</tspan><tspan x="92.09" y="0">Y </tspan></text><text class="cls-6" transform="translate(44.53 20.3) scale(1.15 1)">cupbord</text><text class="cls-7" transform="translate(44.53 28.76)">The kitchen Experts</text><polygon class="cls-8" points="5.1 1 0 3.01 0 29.04 5.1 32.06 5.1 1"/><path class="cls-8" d="M6.67,1V32.06l11-3V3Zm9.76,25.69L8.31,29.18V3.52l8.12,1.66Z"/><polygon class="cls-9" points="28.72 1.04 28.72 32.1 37.19 29.08 37.19 3.06 28.72 1.04"/><polygon class="cls-9" points="18.98 2.55 18.98 4.91 25.58 3.56 25.58 29.23 18.98 27.2 18.98 29.84 27.23 32.1 27.23 1.04 18.98 2.55"/><polygon class="cls-8" points="14.14 12.02 15.03 12.37 15.03 16.89 14.14 17.41 14.14 12.02"/><polygon class="cls-10" points="19.8 12.02 18.91 12.37 18.91 16.89 19.8 17.41 19.8 12.02"/><rect class="cls-8" x="40.34" y="1.04" width="0.82" height="31.06"/></g></g></svg>